<?xml version="1.0" encoding="UTF-8"?>
<svg id="Layer_1" xmlns="http://www.w3.org/2000/svg" version="1.1" viewBox="0 0 294.23 36.49">
  <!-- Generator: Adobe Illustrator 29.8.6, SVG Export Plug-In . SVG Version: 2.1.1 Build 1)  -->
  <defs>
    <style>
      .st0 {
        fill: #fff;
      }

      .st1 {
        fill: #6abd45;
        stroke: #000;
        stroke-miterlimit: 10;
        stroke-width: .5px;
      }
    </style>
  </defs>
  <g>
    <path class="st0" d="M96.39,15.45v-4.21c0-5.61-3.37-8.41-10.1-8.41h-41.23l4.21,8.41h31.97c2.24,0,3.38.67,3.41,2.02-.03,1.46-1.16,2.19-3.41,2.19h-23.56c-5.46,0-8.26,2.19-8.4,6.55l7.24,14.48h4.52v-10.43c0-1.46.73-2.19,2.19-2.19h23.05c6.73,0,10.1-2.8,10.1-8.41Z"/>
    <path class="st0" d="M79.56,26.39c.34,1.12,2.02,4.49,5.05,10.1h15.14c-2.69-3.37-4.38-6.73-5.05-10.1h-15.14Z"/>
    <path class="st0" d="M33.65,2.83h-10.1c-2.24,0-3.93,1.12-5.05,3.37L3.36,36.49h27.76l-4.21-8.41h-4.21l4.96-10.01c.62-1.18,1.22-1.18,1.81,0l9.21,18.43h15.14l-15.14-30.29c-1.12-2.24-2.8-3.37-5.05-3.37Z"/>
    <path class="st0" d="M116.89,28.07c-4.49,0-6.73-1.68-6.73-5.05v-6.73c0-3.37,2.24-5.05,6.73-5.05h20.19V2.83h-25.24c-8.97,0-13.46,3.37-13.46,10.1v13.46c0,6.73,4.49,10.1,13.46,10.1h19.1l4.21-8.41h-18.25Z"/>
    <path class="st0" d="M214.1,2.83h-33.65v22.25l5.7,11.4h27.95c8.97,0,13.46-3.37,13.46-10.1v-13.46c0-6.73-4.49-10.1-13.46-10.1ZM215.78,23.03c0,3.37-2.24,5.05-6.73,5.05h-16.83V11.25h16.83c4.49,0,6.73,1.68,6.73,5.05v6.73Z"/>
    <path class="st0" d="M163.6,2.83h-10.1c-2.24,0-3.93,1.12-5.05,3.37l-15.14,30.29h27.76l-4.21-8.41h-4.21l4.96-10.01c.62-1.18,1.22-1.18,1.81,0l9.21,18.43h15.14l-15.14-30.29c-1.12-2.24-2.8-3.37-5.05-3.37Z"/>
    <polygon class="st0" points="244.8 11.25 240.59 2.83 229.65 2.83 229.65 36.49 241.71 36.49 244.8 30.32 244.8 11.25"/>
    <path class="st0" d="M269.88,18.06l9.21,18.43h15.14l-15.14-30.29c-1.12-2.24-2.8-3.37-5.05-3.37h-10.1c-2.24,0-3.93,1.12-5.05,3.37l-15.14,30.29h27.76l-4.21-8.41h-4.21l4.96-10.01c.62-1.18,1.22-1.18,1.81,0Z"/>
  </g>
  <g>
    <path class="st1" d="M93.44,12.87v-4.21c0-5.61-3.37-8.41-10.1-8.41h-41.23l4.21,8.41h31.97c2.24,0,3.38.67,3.41,2.02-.03,1.46-1.16,2.19-3.41,2.19h-23.56c-5.46,0-8.26,2.19-8.4,6.55l7.24,14.48h4.52v-10.43c0-1.46.73-2.19,2.19-2.19h23.05c6.73,0,10.1-2.8,10.1-8.41Z"/>
    <path class="st1" d="M76.61,23.81c.34,1.12,2.02,4.49,5.05,10.1h15.14c-2.69-3.37-4.38-6.73-5.05-10.1h-15.14Z"/>
    <path class="st1" d="M30.69.25h-10.1c-2.24,0-3.93,1.12-5.05,3.37L.4,33.9h27.76l-4.21-8.41h-4.21l4.96-10.01c.62-1.18,1.22-1.18,1.81,0l9.21,18.43h15.14L35.74,3.62c-1.12-2.24-2.8-3.37-5.05-3.37Z"/>
    <path class="st1" d="M113.93,25.49c-4.49,0-6.73-1.68-6.73-5.05v-6.73c0-3.37,2.24-5.05,6.73-5.05h20.19V.25h-25.24c-8.97,0-13.46,3.37-13.46,10.1v13.46c0,6.73,4.49,10.1,13.46,10.1h19.1l4.21-8.41h-18.25Z"/>
    <path class="st1" d="M211.15.25h-33.65v22.25l5.7,11.4h27.95c8.97,0,13.46-3.37,13.46-10.1v-13.46c0-6.73-4.49-10.1-13.46-10.1ZM212.83,20.44c0,3.37-2.24,5.05-6.73,5.05h-16.83V8.66h16.83c4.49,0,6.73,1.68,6.73,5.05v6.73Z"/>
    <path class="st1" d="M160.64.25h-10.1c-2.24,0-3.93,1.12-5.05,3.37l-15.14,30.29h27.76l-4.21-8.41h-4.21l4.96-10.01c.62-1.18,1.22-1.18,1.81,0l9.21,18.43h15.14l-15.14-30.29c-1.12-2.24-2.8-3.37-5.05-3.37Z"/>
    <polygon class="st1" points="241.84 8.66 237.64 .25 226.7 .25 226.7 33.9 238.76 33.9 241.84 27.73 241.84 8.66"/>
    <path class="st1" d="M266.92,15.48l9.21,18.43h15.14l-15.14-30.29c-1.12-2.24-2.8-3.37-5.05-3.37h-10.1c-2.24,0-3.93,1.12-5.05,3.37l-15.14,30.29h27.76l-4.21-8.41h-4.21l4.96-10.01c.62-1.18,1.22-1.18,1.81,0Z"/>
  </g>
</svg>