<?xml version="1.0" encoding="UTF-8"?>
<svg id="Layer_1" xmlns="http://www.w3.org/2000/svg" version="1.1" viewBox="0 0 641.2 79.48">
  <!-- Generator: Adobe Illustrator 29.8.6, SVG Export Plug-In . SVG Version: 2.1.1 Build 1)  -->
  <defs>
    <style>
      .st0 {
        fill: none;
        stroke: #000;
        stroke-miterlimit: 10;
      }
    </style>
  </defs>
  <g>
    <path class="st0" d="M209.2,33.14v-9.17c0-12.22-7.33-18.34-22-18.34h-89.85l9.17,18.34h69.68c4.89,0,7.36,1.47,7.43,4.4-.06,3.18-2.54,4.77-7.43,4.77h-51.34c-11.91,0-18,4.77-18.31,14.28l15.78,31.57h9.86v-22.74c0-3.18,1.59-4.77,4.77-4.77h50.24c14.67,0,22-6.11,22-18.34Z"/>
    <path class="st0" d="M172.52,56.98c.73,2.45,4.4,9.78,11,22h33.01c-5.87-7.33-9.54-14.67-11-22h-33.01Z"/>
    <path class="st0" d="M72.45,5.63h-22c-4.89,0-8.56,2.45-11,7.33L6.44,78.98h60.51l-9.17-18.34h-9.17l10.82-21.82c1.34-2.57,2.66-2.57,3.94,0l20.08,40.16h33.01L83.45,12.97c-2.45-4.89-6.11-7.33-11-7.33Z"/>
    <path class="st0" d="M253.87,60.64c-9.78,0-14.67-3.67-14.67-11v-14.67c0-7.33,4.89-11,14.67-11h44.01V5.63h-55.01c-19.56,0-29.34,7.33-29.34,22v29.34c0,14.67,9.78,22,29.34,22h41.62l9.17-18.34h-39.79Z"/>
    <path class="st0" d="M465.75,5.63h-73.35v48.5l12.42,24.85h60.92c19.56,0,29.34-7.33,29.34-22v-29.34c0-14.67-9.78-22-29.34-22ZM469.41,49.64c0,7.33-4.89,11-14.67,11h-36.67V23.97h36.67c9.78,0,14.67,3.67,14.67,11v14.67Z"/>
    <path class="st0" d="M355.67,5.63h-22c-4.89,0-8.56,2.45-11,7.33l-33.01,66.01h60.51l-9.17-18.34h-9.17l10.82-21.82c1.34-2.57,2.66-2.57,3.94,0l20.08,40.16h33.01l-33.01-66.01c-2.45-4.89-6.11-7.33-11-7.33Z"/>
    <polygon class="st0" points="532.65 23.97 523.48 5.63 499.64 5.63 499.64 78.98 525.92 78.98 532.65 65.53 532.65 23.97"/>
    <path class="st0" d="M587.31,38.82l20.08,40.16h33.01l-33.01-66.01c-2.45-4.89-6.11-7.33-11-7.33h-22c-4.89,0-8.56,2.45-11,7.33l-33.01,66.01h60.51l-9.17-18.34h-9.17l10.82-21.82c1.34-2.57,2.66-2.57,3.94,0Z"/>
  </g>
  <g>
    <path d="M202.76,27.51v-9.17c0-12.22-7.33-18.34-22-18.34h-89.85l9.17,18.34h69.68c4.89,0,7.36,1.47,7.43,4.4-.06,3.18-2.54,4.77-7.43,4.77h-51.34c-11.91,0-18,4.77-18.31,14.28l15.78,31.57h9.86v-22.74c0-3.18,1.59-4.77,4.77-4.77h50.24c14.67,0,22-6.11,22-18.34Z"/>
    <path d="M166.09,51.34c.73,2.45,4.4,9.78,11,22h33.01c-5.87-7.33-9.54-14.67-11-22h-33.01Z"/>
    <path d="M66.01,0h-22c-4.89,0-8.56,2.45-11,7.33L0,73.35h60.51l-9.17-18.34h-9.17l10.82-21.82c1.34-2.57,2.66-2.57,3.94,0l20.08,40.16h33.01L77.02,7.33c-2.45-4.89-6.11-7.33-11-7.33Z"/>
    <path d="M247.43,55.01c-9.78,0-14.67-3.67-14.67-11v-14.67c0-7.33,4.89-11,14.67-11h44.01V0h-55.01c-19.56,0-29.34,7.33-29.34,22v29.34c0,14.67,9.78,22,29.34,22h41.62l9.17-18.34h-39.79Z"/>
    <path d="M459.31,0h-73.35v48.5l12.42,24.85h60.92c19.56,0,29.34-7.33,29.34-22v-29.34c0-14.67-9.78-22-29.34-22ZM462.98,44.01c0,7.33-4.89,11-14.67,11h-36.67V18.34h36.67c9.78,0,14.67,3.67,14.67,11v14.67Z"/>
    <path d="M349.23,0h-22c-4.89,0-8.56,2.45-11,7.33l-33.01,66.01h60.51l-9.17-18.34h-9.17l10.82-21.82c1.34-2.57,2.66-2.57,3.94,0l20.08,40.16h33.01L360.23,7.33c-2.45-4.89-6.11-7.33-11-7.33Z"/>
    <polygon points="526.21 18.34 517.04 0 493.2 0 493.2 73.35 519.49 73.35 526.21 59.9 526.21 18.34"/>
    <path d="M580.87,33.19l20.08,40.16h33.01l-33.01-66.01c-2.45-4.89-6.11-7.33-11-7.33h-22c-4.89,0-8.56,2.45-11,7.33l-33.01,66.01h60.51l-9.17-18.34h-9.17l10.82-21.82c1.34-2.57,2.66-2.57,3.94,0Z"/>
  </g>
</svg>