<?xml version="1.0" encoding="UTF-8"?>
<svg id="Layer_1" xmlns="http://www.w3.org/2000/svg" version="1.1" viewBox="0 0 117.17 14.45">
  <!-- Generator: Adobe Illustrator 29.8.6, SVG Export Plug-In . SVG Version: 2.1.1 Build 1)  -->
  <defs>
    <style>
      .st0 {
        fill: #fff;
      }
    </style>
  </defs>
  <g>
    <path class="st0" d="M38.28,6.06v-1.68c0-2.24-1.34-3.36-4.03-3.36h-16.44l1.68,3.36h12.75c.89,0,1.35.27,1.36.81-.01.58-.46.87-1.36.87h-9.39c-2.18,0-3.29.87-3.35,2.61l2.89,5.78h1.8v-4.16c0-.58.29-.87.87-.87h9.19c2.68,0,4.03-1.12,4.03-3.36Z"/>
    <path class="st0" d="M31.57,10.43c.13.45.81,1.79,2.01,4.03h6.04c-1.07-1.34-1.74-2.68-2.01-4.03h-6.04Z"/>
    <path class="st0" d="M13.26,1.03h-4.03c-.89,0-1.57.45-2.01,1.34L1.18,14.45h11.07l-1.68-3.36h-1.68l1.98-3.99c.25-.47.49-.47.72,0l3.67,7.35h6.04L15.27,2.37c-.45-.89-1.12-1.34-2.01-1.34Z"/>
    <path class="st0" d="M46.45,11.1c-1.79,0-2.68-.67-2.68-2.01v-2.68c0-1.34.89-2.01,2.68-2.01h8.05V1.03h-10.07c-3.58,0-5.37,1.34-5.37,4.03v5.37c0,2.68,1.79,4.03,5.37,4.03h7.62l1.68-3.36h-7.28Z"/>
    <path class="st0" d="M85.22,1.03h-13.42v8.87l2.27,4.55h11.15c3.58,0,5.37-1.34,5.37-4.03v-5.37c0-2.68-1.79-4.03-5.37-4.03ZM85.89,9.08c0,1.34-.89,2.01-2.68,2.01h-6.71v-6.71h6.71c1.79,0,2.68.67,2.68,2.01v2.68Z"/>
    <path class="st0" d="M65.08,1.03h-4.03c-.89,0-1.57.45-2.01,1.34l-6.04,12.08h11.07l-1.68-3.36h-1.68l1.98-3.99c.25-.47.49-.47.72,0l3.67,7.35h6.04l-6.04-12.08c-.45-.89-1.12-1.34-2.01-1.34Z"/>
    <polygon class="st0" points="97.46 4.39 95.78 1.03 91.42 1.03 91.42 14.45 96.23 14.45 97.46 11.99 97.46 4.39"/>
    <path class="st0" d="M107.46,7.1l3.67,7.35h6.04l-6.04-12.08c-.45-.89-1.12-1.34-2.01-1.34h-4.03c-.89,0-1.57.45-2.01,1.34l-6.04,12.08h11.07l-1.68-3.36h-1.68l1.98-3.99c.25-.47.49-.47.72,0Z"/>
  </g>
  <g>
    <path d="M37.1,5.03v-1.68c0-2.24-1.34-3.36-4.03-3.36h-16.44l1.68,3.36h12.75c.89,0,1.35.27,1.36.81-.01.58-.46.87-1.36.87h-9.39c-2.18,0-3.29.87-3.35,2.61l2.89,5.78h1.8v-4.16c0-.58.29-.87.87-.87h9.19c2.68,0,4.03-1.12,4.03-3.36Z"/>
    <path d="M30.39,9.39c.13.45.81,1.79,2.01,4.03h6.04c-1.07-1.34-1.74-2.68-2.01-4.03h-6.04Z"/>
    <path d="M12.08,0h-4.03c-.89,0-1.57.45-2.01,1.34L0,13.42h11.07l-1.68-3.36h-1.68l1.98-3.99c.25-.47.49-.47.72,0l3.67,7.35h6.04L14.09,1.34c-.45-.89-1.12-1.34-2.01-1.34Z"/>
    <path d="M45.27,10.07c-1.79,0-2.68-.67-2.68-2.01v-2.68c0-1.34.89-2.01,2.68-2.01h8.05V0h-10.07c-3.58,0-5.37,1.34-5.37,4.03v5.37c0,2.68,1.79,4.03,5.37,4.03h7.62l1.68-3.36h-7.28Z"/>
    <path d="M84.04,0h-13.42v8.87l2.27,4.55h11.15c3.58,0,5.37-1.34,5.37-4.03v-5.37c0-2.68-1.79-4.03-5.37-4.03ZM84.71,8.05c0,1.34-.89,2.01-2.68,2.01h-6.71V3.36h6.71c1.79,0,2.68.67,2.68,2.01v2.68Z"/>
    <path d="M63.9,0h-4.03c-.89,0-1.57.45-2.01,1.34l-6.04,12.08h11.07l-1.68-3.36h-1.68l1.98-3.99c.25-.47.49-.47.72,0l3.67,7.35h6.04l-6.04-12.08c-.45-.89-1.12-1.34-2.01-1.34Z"/>
    <polygon points="96.28 3.36 94.6 0 90.24 0 90.24 13.42 95.05 13.42 96.28 10.96 96.28 3.36"/>
    <path d="M106.28,6.07l3.67,7.35h6.04l-6.04-12.08c-.45-.89-1.12-1.34-2.01-1.34h-4.03c-.89,0-1.57.45-2.01,1.34l-6.04,12.08h11.07l-1.68-3.36h-1.68l1.98-3.99c.25-.47.49-.47.72,0Z"/>
  </g>
</svg>